<?xml version="1.0" encoding="UTF-8" standalone="no"?>
<svg
   version="1.0"
   width="203.000000pt"
   height="170.000000pt"
   viewBox="0 0 203.000000 170.000000"
   preserveAspectRatio="xMidYMid meet"
   id="svg2"
   sodipodi:docname="gf-round.svg"
   inkscape:version="1.4 (e7c3feb1, 2024-10-09)"
   xmlns:inkscape="http://www.inkscape.org/namespaces/inkscape"
   xmlns:sodipodi="http://sodipodi.sourceforge.net/DTD/sodipodi-0.dtd"
   xmlns="http://www.w3.org/2000/svg"
   xmlns:svg="http://www.w3.org/2000/svg">
  <defs
     id="defs2" />
  <sodipodi:namedview
     id="namedview2"
     pagecolor="#ffffff"
     bordercolor="#000000"
     borderopacity="0.25"
     inkscape:showpageshadow="2"
     inkscape:pageopacity="0.0"
     inkscape:pagecheckerboard="0"
     inkscape:deskcolor="#d1d1d1"
     inkscape:document-units="pt"
     inkscape:zoom="0.11470588"
     inkscape:cx="139.48718"
     inkscape:cy="117.69231"
     inkscape:window-width="1104"
     inkscape:window-height="688"
     inkscape:window-x="198"
     inkscape:window-y="24"
     inkscape:window-maximized="0"
     inkscape:current-layer="svg2" />
  <g
     transform="matrix(0.09596282,0,0,-0.1,-51.364964,170)"
     fill="#000000"
     stroke="none"
     id="g2">
    <path
       d="m -10123.549,9152.8003 c -1476.907,-215.3152 -1989.938,-430.6303 -2145.402,-928.5466 -171.01,-565.2023 -62.185,-780.5174 466.392,-955.461 326.474,-107.6576 652.948,-94.2004 1290.35,67.286 3015.9997,699.7742 5752.1642,148.0292 7446.7206,-1493.7489 1445.8142,-1413.0057 2114.30889,-3687.272 1772.2883,-6055.73864 -248.7422,-1668.69246 -715.1339,-2637.61066 -1663.4636,-3512.32846 -1368.0822,-1251.5193 -3295.8345,-1870.5504 -5379.0506,-1722.5212 -637.402,40.3716 -1414.7214,134.572 -1725.6497,215.3152 l -575.216,134.5719 77.732,2260.8091 c 31.093,1238.0622 93.278,2328.09513 124.371,2422.29551 46.639,80.74318 295.382,161.48636 590.7629,161.48636 279.835,0 590.7628,67.28599 699.5875,161.486365 295.3814,255.686745 217.6495,847.803415 -171.0102,1157.318965 -404.2062,336.4299 -1336.9892,390.2587 -2300.8652,161.4863 -497.485,-121.1147 -590.763,-215.3151 -746.227,-713.2314 -233.196,-793.97462 -481.938,-5678.9371 -295.381,-6244.1394 186.556,-619.0311 575.216,-780.5175 2409.69,-1103.4902 1881.1129,-336.4299 3233.6487,-349.8871 4834.9268,-67.286 3731.1334,659.4027 5705.52482,2651.0679 6249.64844,6257.59666 C 1287.5005,2356.9158 308.07801,5411.6995 -1697.4062,7161.1351 -3625.1584,8870.1992 -6858.8074,9637.2594 -10123.549,9152.8003 Z"
       id="path1"
       style="stroke-width:14.4641" />
    <path
       d="M 5236.2833,9179.7147 C 3759.3764,9018.2283 3868.2011,9691.0882 3821.5619,809.33814 l -31.0927,-7791.71704 373.1133,-336.43 c 466.3917,-403.7159 1336.9895,-457.5447 1663.4636,-94.2004 544.1237,551.7451 637.402,1197.6906 590.7628,4131.3595 -31.0928,2058.9512 0,2933.66899 124.3711,3041.32657 139.9175,121.11477 1088.2473,148.029165 3187.0098,134.57197 1647.9172,-13.4572 3124.8242,13.457195 3280.2882,67.285983 404.206,134.571971 715.134,740.145837 559.67,1090.032977 -279.835,672.8598 -668.495,740.1458 -3808.8654,699.7742 -3700.0406,-53.8288 -3420.2056,-255.6867 -3389.1128,2664.525 31.0927,2449.2099 124.3711,3000.955 497.4844,3014.4122 139.9175,0 1772.2884,0 3622.3088,-13.4572 3591.216,-13.4572 4119.793,53.8288 4275.257,619.031 139.917,457.5447 -62.186,847.8035 -559.67,1063.1186 -373.113,161.4864 -1165.979,201.858 -4306.3499,188.4008 -2114.3089,-13.4572 -4228.6179,-67.286 -4663.9168,-107.6576 z"
       id="path2"
       style="stroke-width:14.4641" />
  </g>
</svg>
