<?xml version="1.0" encoding="utf-8" ?>
<svg baseProfile="full" height="1024" version="1.1" width="1024" xmlns="http://www.w3.org/2000/svg" xmlns:ev="http://www.w3.org/2001/xml-events" xmlns:xlink="http://www.w3.org/1999/xlink"><defs /><circle cx="512" cy="512" fill="none" r="492" stroke="black" stroke-width="10" /><polygon fill="lightgray" points="1004.0,512.0 996.5254144820063,426.56509658787024 623.1955767015847,887.8983156679503" stroke="black" stroke-width="1" /><polygon fill="lightgray" points="996.5254144820063,426.56509658787024 974.3287694266669,343.72608948377103 686.7803235401923,862.8786663551743" stroke="black" stroke-width="1" /><polygon fill="lightgray" points="974.3287694266669,343.72608948377103 938.0844986619438,266.0 745.0544586911424,827.1977463183686" stroke="black" stroke-width="1" /><polygon fill="lightgray" points="938.0844986619438,266.0 888.8938660145373,195.74849603422268 796.2473520460087,781.9397022574346" stroke="black" stroke-width="1" /><polygon fill="lightgray" points="888.8938660145373,195.74849603422268 828.2515039657774,135.1061339854628 838.803533445057,728.4796769394889" stroke="black" stroke-width="1" /><polygon fill="lightgray" points="828.2515039657774,135.1061339854628 758.0,85.91550133805623 871.4299548509446,668.4420261817389" stroke="black" stroke-width="1" /><polygon fill="lightgray" points="758.0,85.91550133805623 680.2739105162291,49.671230573333105 893.1352789590194,603.6509636219419" stroke="black" stroke-width="1" /><polygon fill="lightgray" points="680.2739105162291,49.671230573333105 597.4349034121298,27.47458551799366 903.2600004796814,536.0751329101171" stroke="black" stroke-width="1" /><polygon fill="lightgray" points="597.4349034121298,27.47458551799366 512.0,20.0 901.4964848728814,467.76779146742376" stroke="black" stroke-width="1" /><polygon fill="lightgray" points="512.0,20.0 426.5650965878703,27.47458551799366 887.8983156679503,400.8044232984153" stroke="black" stroke-width="1" /><polygon fill="lightgray" points="426.5650965878703,27.47458551799366 343.72608948377103,49.67123057333305 862.8786663551743,337.2196764598077" stroke="black" stroke-width="1" /><polygon fill="lightgray" points="343.72608948377103,49.67123057333305 266.0000000000001,85.91550133805617 827.1977463183687,278.9455413088577" stroke="black" stroke-width="1" /><polygon fill="lightgray" points="266.0000000000001,85.91550133805617 195.74849603422263,135.1061339854628 781.9397022574349,227.75264795399164" stroke="black" stroke-width="1" /><polygon fill="lightgray" points="195.74849603422263,135.1061339854628 135.10613398546286,195.74849603422257 728.4796769394889,185.19646655494296" stroke="black" stroke-width="1" /><polygon fill="lightgray" points="135.10613398546286,195.74849603422257 85.91550133805617,266.0 668.442026181739,152.57004514905537" stroke="black" stroke-width="1" /><polygon fill="lightgray" points="85.91550133805617,266.0 49.671230573333105,343.7260894837709 603.6509636219415,130.8647210409806" stroke="black" stroke-width="1" /><polygon fill="lightgray" points="49.671230573333105,343.7260894837709 27.47458551799366,426.5650965878703 536.0751329101171,120.73999952031869" stroke="black" stroke-width="1" /><polygon fill="lightgray" points="27.47458551799366,426.5650965878703 20.0,511.99999999999994 467.7677914674238,122.50351512711865" stroke="black" stroke-width="1" /><polygon fill="lightgray" points="20.0,511.99999999999994 27.47458551799366,597.4349034121298 400.8044232984154,136.10168433204973" stroke="black" stroke-width="1" /><polygon fill="lightgray" points="27.47458551799366,597.4349034121298 49.67123057333305,680.273910516229 337.2196764598077,161.1213336448257" stroke="black" stroke-width="1" /><polygon fill="lightgray" points="49.67123057333305,680.273910516229 85.91550133805623,758.0 278.94554130885774,196.80225368163138" stroke="black" stroke-width="1" /><polygon fill="lightgray" points="85.91550133805623,758.0 135.1061339854628,828.2515039657774 227.75264795399164,242.06029774256507" stroke="black" stroke-width="1" /><polygon fill="lightgray" points="135.1061339854628,828.2515039657774 195.74849603422257,888.8938660145371 185.19646655494319,295.52032306051075" stroke="black" stroke-width="1" /><polygon fill="lightgray" points="195.74849603422257,888.8938660145371 265.9999999999998,938.0844986619436 152.5700451490555,355.5579738182607" stroke="black" stroke-width="1" /><polygon fill="lightgray" points="265.9999999999998,938.0844986619436 343.72608948377103,974.3287694266669 130.86472104098073,420.34903637805775" stroke="black" stroke-width="1" /><polygon fill="lightgray" points="343.72608948377103,974.3287694266669 426.56509658787024,996.5254144820063 120.73999952031869,487.92486708988287" stroke="black" stroke-width="1" /><polygon fill="lightgray" points="426.56509658787024,996.5254144820063 511.9999999999999,1004.0 122.50351512711865,556.2322085325761" stroke="black" stroke-width="1" /><polygon fill="lightgray" points="511.9999999999999,1004.0 597.4349034121295,996.5254144820065 136.10168433204967,623.1955767015846" stroke="black" stroke-width="1" /><polygon fill="lightgray" points="597.4349034121295,996.5254144820065 680.2739105162291,974.3287694266669 161.1213336448257,686.7803235401923" stroke="black" stroke-width="1" /><polygon fill="lightgray" points="680.2739105162291,974.3287694266669 758.0,938.0844986619438 196.80225368163178,745.0544586911428" stroke="black" stroke-width="1" /><polygon fill="lightgray" points="758.0,938.0844986619438 828.2515039657774,888.8938660145373 242.06029774256564,796.2473520460088" stroke="black" stroke-width="1" /><polygon fill="lightgray" points="828.2515039657774,888.8938660145373 888.893866014537,828.2515039657775 295.5203230605113,838.8035334450572" stroke="black" stroke-width="1" /><polygon fill="lightgray" points="888.893866014537,828.2515039657775 938.0844986619436,758.0000000000002 355.5579738182613,871.4299548509448" stroke="black" stroke-width="1" /><polygon fill="lightgray" points="938.0844986619436,758.0000000000002 974.3287694266669,680.273910516229 420.3490363780584,893.1352789590194" stroke="black" stroke-width="1" /><polygon fill="lightgray" points="974.3287694266669,680.273910516229 996.5254144820063,597.4349034121298 487.92486708988287,903.2600004796814" stroke="black" stroke-width="1" /><polygon fill="lightgray" points="996.5254144820063,597.4349034121298 1004.0,512.0000000000001 556.2322085325761,901.4964848728814" stroke="black" stroke-width="1" /><circle cx="512" cy="512" fill="none" r="341" stroke="black" stroke-width="2" /><circle cx="512" cy="512" fill="none" r="391" stroke="black" stroke-width="2" /><circle cx="512" cy="512" fill="none" r="441" stroke="black" stroke-width="2" /><circle cx="512" cy="512" fill="none" r="491" stroke="black" stroke-width="2" /><circle cx="512" cy="512" fill="white" r="341" stroke="black" stroke-width="5" /></svg>