<?xml version="1.0" encoding="utf-8" ?>
<svg baseProfile="full" height="1024" version="1.1" width="1024" xmlns="http://www.w3.org/2000/svg" xmlns:ev="http://www.w3.org/2001/xml-events" xmlns:xlink="http://www.w3.org/1999/xlink"><defs /><circle cx="512" cy="512" fill="none" r="492" stroke="black" stroke-width="10" /><polygon fill="gray" points="1004.0,512.0 637.378685974746,935.8445294011071 996.5254144820063,426.56509658787024" stroke="black" stroke-width="1" /><polygon fill="gray" points="996.5254144820063,426.56509658787024 709.0737321550127,907.6335982882322 974.3287694266669,343.72608948377103" stroke="black" stroke-width="1" /><polygon fill="gray" points="974.3287694266669,343.72608948377103 774.7807927078696,867.4015404916299 938.0844986619438,266.0" stroke="black" stroke-width="1" /><polygon fill="gray" points="938.0844986619438,266.0 832.5033918477955,816.3707867290461 888.8938660145373,195.74849603422268" stroke="black" stroke-width="1" /><polygon fill="gray" points="888.8938660145373,195.74849603422268 880.4876576089673,756.0918806307502 828.2515039657774,135.1061339854628" stroke="black" stroke-width="1" /><polygon fill="gray" points="828.2515039657774,135.1061339854628 917.2756123574427,688.3963662559404 758.0,85.91550133805623" stroke="black" stroke-width="1" /><polygon fill="gray" points="758.0,85.91550133805623 941.7494727037922,615.341137553312 680.2739105162291,49.671230573333105" stroke="black" stroke-width="1" /><polygon fill="gray" points="680.2739105162291,49.671230573333105 953.1656127857631,539.1459406792646 597.4349034121298,27.47458551799366" stroke="black" stroke-width="1" /><polygon fill="gray" points="597.4349034121298,27.47458551799366 951.1771589638101,462.125928134187 512.0,20.0" stroke="black" stroke-width="1" /><polygon fill="gray" points="512.0,20.0 935.8445294011071,386.62131402525404 426.5650965878703,27.47458551799366" stroke="black" stroke-width="1" /><polygon fill="gray" points="426.5650965878703,27.47458551799366 907.6335982882322,314.92626784498725 343.72608948377103,49.67123057333305" stroke="black" stroke-width="1" /><polygon fill="gray" points="343.72608948377103,49.67123057333305 867.4015404916299,249.21920729213036 266.0000000000001,85.91550133805617" stroke="black" stroke-width="1" /><polygon fill="gray" points="266.0000000000001,85.91550133805617 816.3707867290465,191.49660815220483 195.74849603422263,135.1061339854628" stroke="black" stroke-width="1" /><polygon fill="gray" points="195.74849603422263,135.1061339854628 756.0918806307502,143.51234239103263 135.10613398546286,195.74849603422257" stroke="black" stroke-width="1" /><polygon fill="gray" points="135.10613398546286,195.74849603422257 688.3963662559404,106.72438764255736 85.91550133805617,266.0" stroke="black" stroke-width="1" /><polygon fill="gray" points="85.91550133805617,266.0 615.3411375533117,82.25052729620774 49.671230573333105,343.7260894837709" stroke="black" stroke-width="1" /><polygon fill="gray" points="49.671230573333105,343.7260894837709 539.1459406792646,70.83438721423693 27.47458551799366,426.5650965878703" stroke="black" stroke-width="1" /><polygon fill="gray" points="27.47458551799366,426.5650965878703 462.12592813418706,72.82284103618991 20.0,511.99999999999994" stroke="black" stroke-width="1" /><polygon fill="gray" points="20.0,511.99999999999994 386.62131402525404,88.1554705988928 27.47458551799366,597.4349034121298" stroke="black" stroke-width="1" /><polygon fill="gray" points="27.47458551799366,597.4349034121298 314.9262678449873,116.36640171176776 49.67123057333305,680.273910516229" stroke="black" stroke-width="1" /><polygon fill="gray" points="49.67123057333305,680.273910516229 249.21920729213042,156.59845950837007 85.91550133805623,758.0" stroke="black" stroke-width="1" /><polygon fill="gray" points="85.91550133805623,758.0 191.49660815220489,207.62921327095353 135.1061339854628,828.2515039657774" stroke="black" stroke-width="1" /><polygon fill="gray" points="135.1061339854628,828.2515039657774 143.51234239103286,267.90811936924933 195.74849603422257,888.8938660145371" stroke="black" stroke-width="1" /><polygon fill="gray" points="195.74849603422257,888.8938660145371 106.72438764255747,335.6036337440592 265.9999999999998,938.0844986619436" stroke="black" stroke-width="1" /><polygon fill="gray" points="265.9999999999998,938.0844986619436 82.25052729620785,408.6588624466876 343.72608948377103,974.3287694266669" stroke="black" stroke-width="1" /><polygon fill="gray" points="343.72608948377103,974.3287694266669 70.83438721423693,484.8540593207353 426.56509658787024,996.5254144820063" stroke="black" stroke-width="1" /><polygon fill="gray" points="426.56509658787024,996.5254144820063 72.82284103618991,561.8740718658129 511.9999999999999,1004.0" stroke="black" stroke-width="1" /><polygon fill="gray" points="511.9999999999999,1004.0 88.15547059889275,637.378685974746 597.4349034121295,996.5254144820065" stroke="black" stroke-width="1" /><polygon fill="gray" points="597.4349034121295,996.5254144820065 116.36640171176776,709.0737321550126 680.2739105162291,974.3287694266669" stroke="black" stroke-width="1" /><polygon fill="gray" points="680.2739105162291,974.3287694266669 156.59845950837052,774.7807927078702 758.0,938.0844986619438" stroke="black" stroke-width="1" /><polygon fill="gray" points="758.0,938.0844986619438 207.6292132709541,832.5033918477957 828.2515039657774,888.8938660145373" stroke="black" stroke-width="1" /><polygon fill="gray" points="828.2515039657774,888.8938660145373 267.90811936925,880.4876576089675 888.893866014537,828.2515039657775" stroke="black" stroke-width="1" /><polygon fill="gray" points="888.893866014537,828.2515039657775 335.60363374405995,917.2756123574428 938.0844986619436,758.0000000000002" stroke="black" stroke-width="1" /><polygon fill="gray" points="938.0844986619436,758.0000000000002 408.6588624466883,941.7494727037922 974.3287694266669,680.273910516229" stroke="black" stroke-width="1" /><polygon fill="gray" points="974.3287694266669,680.273910516229 484.85405932073525,953.1656127857631 996.5254144820063,597.4349034121298" stroke="black" stroke-width="1" /><polygon fill="gray" points="996.5254144820063,597.4349034121298 561.8740718658129,951.1771589638101 1004.0,512.0000000000001" stroke="black" stroke-width="1" /><circle cx="512" cy="512" fill="white" r="341" stroke="black" stroke-width="5" /></svg>