<?xml version="1.0" encoding="utf-8" ?>
<svg baseProfile="full" height="1024" version="1.1" width="1024" xmlns="http://www.w3.org/2000/svg" xmlns:ev="http://www.w3.org/2001/xml-events" xmlns:xlink="http://www.w3.org/1999/xlink"><defs /><circle cx="512" cy="512" fill="none" r="492" stroke="black" stroke-width="10" /><polygon fill="gray" points="1004.0,512.0 1002.1277914611388,469.1193745681522 165.90595808372467,253.4600337470908" stroke="black" stroke-width="1" /><polygon fill="gray" points="1002.1277914611388,469.1193745681522 996.5254144820063,426.56509658787024 144.6897076131374,284.6079396577851" stroke="black" stroke-width="1" /><polygon fill="gray" points="996.5254144820063,426.56509658787024 987.2355065342216,384.6610298095598 126.26891025563259,317.48643645076373" stroke="black" stroke-width="1" /><polygon fill="gray" points="987.2355065342216,384.6610298095598 974.3287694266669,343.72608948377103 110.78375940188232,351.8452989128531" stroke="black" stroke-width="1" /><polygon fill="gray" points="974.3287694266669,343.72608948377103 957.9034312220317,304.07181522357587 98.35210640007358,387.42303535426794" stroke="black" stroke-width="1" /><polygon fill="gray" points="957.9034312220317,304.07181522357587 938.0844986619438,266.0 89.06856363598735,423.9488777182647" stroke="black" stroke-width="1" /><polygon fill="gray" points="938.0844986619438,266.0 915.022805790184,229.80039331528536 83.00378447561462,461.1448422895468" stroke="black" stroke-width="1" /><polygon fill="gray" points="915.022805790184,229.80039331528536 888.8938660145373,195.74849603422268 80.20392555037961,498.72784531818934" stroke="black" stroke-width="1" /><polygon fill="gray" points="888.8938660145373,195.74849603422268 859.8965363437815,164.10346365621865 80.69029547730457,536.4118574579064" stroke="black" stroke-width="1" /><polygon fill="gray" points="859.8965363437815,164.10346365621865 828.2515039657774,135.1061339854628 84.45919268756722,573.9100806220863" stroke="black" stroke-width="1" /><polygon fill="gray" points="828.2515039657774,135.1061339854628 794.1996066847147,108.97719420981605 91.48193359767521,610.9371306904033" stroke="black" stroke-width="1" /><polygon fill="gray" points="794.1996066847147,108.97719420981605 758.0,85.91550133805623 101.70507090885565,647.2112094542936" stroke="black" stroke-width="1" /><polygon fill="gray" points="758.0,85.91550133805623 719.9281847764241,66.09656877796823 115.05080037327144,682.456249271476" stroke="black" stroke-width="1" /><polygon fill="gray" points="719.9281847764241,66.09656877796823 680.2739105162291,49.671230573333105 131.4175529313266,716.4040141074055" stroke="black" stroke-width="1" /><polygon fill="gray" points="680.2739105162291,49.671230573333105 639.3389701904403,36.7644934657784 150.68076771353896,748.7961409734592" stroke="black" stroke-width="1" /><polygon fill="gray" points="639.3389701904403,36.7644934657784 597.4349034121298,27.47458551799366 172.69384002396873,779.3861062252859" stroke="black" stroke-width="1" /><polygon fill="gray" points="597.4349034121298,27.47458551799366 554.8806254318478,21.872208538861173 197.289237090477,807.9411017565928" stroke="black" stroke-width="1" /><polygon fill="gray" points="554.8806254318478,21.872208538861173 512.0,20.0 224.2797730902809,834.2438068094091" stroke="black" stroke-width="1" /><polygon fill="gray" points="512.0,20.0 469.1193745681521,21.872208538861173 253.4600337470908,858.0940419162753" stroke="black" stroke-width="1" /><polygon fill="gray" points="469.1193745681521,21.872208538861173 426.5650965878703,27.47458551799366 284.6079396577851,879.3102923868626" stroke="black" stroke-width="1" /><polygon fill="gray" points="426.5650965878703,27.47458551799366 384.66102980955975,36.7644934657784 317.4864364507637,897.7310897443674" stroke="black" stroke-width="1" /><polygon fill="gray" points="384.66102980955975,36.7644934657784 343.72608948377103,49.67123057333305 351.84529891285285,913.2162405981176" stroke="black" stroke-width="1" /><polygon fill="gray" points="343.72608948377103,49.67123057333305 304.0718152235759,66.09656877796817 387.42303535426777,925.6478935999263" stroke="black" stroke-width="1" /><polygon fill="gray" points="304.0718152235759,66.09656877796817 266.0000000000001,85.91550133805617 423.9488777182645,934.9314363640126" stroke="black" stroke-width="1" /><polygon fill="gray" points="266.0000000000001,85.91550133805617 229.8003933152853,108.9771942098161 461.14484228954655,940.9962155243854" stroke="black" stroke-width="1" /><polygon fill="gray" points="229.8003933152853,108.9771942098161 195.74849603422263,135.1061339854628 498.72784531818934,943.7960744496204" stroke="black" stroke-width="1" /><polygon fill="gray" points="195.74849603422263,135.1061339854628 164.10346365621865,164.1034636562186 536.4118574579064,943.3097045226955" stroke="black" stroke-width="1" /><polygon fill="gray" points="164.10346365621865,164.1034636562186 135.10613398546286,195.74849603422257 573.9100806220862,939.5408073124328" stroke="black" stroke-width="1" /><polygon fill="gray" points="135.10613398546286,195.74849603422257 108.97719420981599,229.80039331528542 610.9371306904033,932.5180664023248" stroke="black" stroke-width="1" /><polygon fill="gray" points="108.97719420981599,229.80039331528542 85.91550133805617,266.0 647.2112094542938,922.2949290911442" stroke="black" stroke-width="1" /><polygon fill="gray" points="85.91550133805617,266.0 66.09656877796823,304.07181522357587 682.4562492714764,908.9491996267284" stroke="black" stroke-width="1" /><polygon fill="gray" points="66.09656877796823,304.07181522357587 49.671230573333105,343.7260894837709 716.4040141074056,892.5824470686732" stroke="black" stroke-width="1" /><polygon fill="gray" points="49.671230573333105,343.7260894837709 36.76449346577846,384.66102980955964 748.7961409734594,873.3192322864611" stroke="black" stroke-width="1" /><polygon fill="gray" points="36.76449346577846,384.66102980955964 27.47458551799366,426.5650965878703 779.3861062252859,851.3061599760313" stroke="black" stroke-width="1" /><polygon fill="gray" points="27.47458551799366,426.5650965878703 21.872208538861173,469.1193745681522 807.9411017565927,826.710762909523" stroke="black" stroke-width="1" /><polygon fill="gray" points="21.872208538861173,469.1193745681522 20.0,511.99999999999994 834.2438068094091,799.720226909719" stroke="black" stroke-width="1" /><polygon fill="gray" points="20.0,511.99999999999994 21.872208538861173,554.8806254318478 858.0940419162753,770.5399662529092" stroke="black" stroke-width="1" /><polygon fill="gray" points="21.872208538861173,554.8806254318478 27.47458551799366,597.4349034121298 879.3102923868626,739.3920603422149" stroke="black" stroke-width="1" /><polygon fill="gray" points="27.47458551799366,597.4349034121298 36.7644934657784,639.3389701904403 897.7310897443674,706.5135635492363" stroke="black" stroke-width="1" /><polygon fill="gray" points="36.7644934657784,639.3389701904403 49.67123057333305,680.273910516229 913.2162405981176,672.1547010871471" stroke="black" stroke-width="1" /><polygon fill="gray" points="49.67123057333305,680.273910516229 66.09656877796817,719.928184776424 925.6478935999263,636.5769646457322" stroke="black" stroke-width="1" /><polygon fill="gray" points="66.09656877796817,719.928184776424 85.91550133805623,758.0 934.9314363640126,600.0511222817355" stroke="black" stroke-width="1" /><polygon fill="gray" points="85.91550133805623,758.0 108.97719420981605,794.1996066847147 940.9962155243854,562.8551577104531" stroke="black" stroke-width="1" /><polygon fill="gray" points="108.97719420981605,794.1996066847147 135.1061339854628,828.2515039657774 943.7960744496204,525.2721546818107" stroke="black" stroke-width="1" /><polygon fill="gray" points="135.1061339854628,828.2515039657774 164.10346365621854,859.8965363437813 943.3097045226955,487.58814254209364" stroke="black" stroke-width="1" /><polygon fill="gray" points="164.10346365621854,859.8965363437813 195.74849603422257,888.8938660145371 939.5408073124328,450.0899193779138" stroke="black" stroke-width="1" /><polygon fill="gray" points="195.74849603422257,888.8938660145371 229.8003933152852,915.0228057901838 932.5180664023248,413.06286930959675" stroke="black" stroke-width="1" /><polygon fill="gray" points="229.8003933152852,915.0228057901838 265.9999999999998,938.0844986619436 922.2949290911444,376.78879054570655" stroke="black" stroke-width="1" /><polygon fill="gray" points="265.9999999999998,938.0844986619436 304.071815223576,957.9034312220318 908.9491996267286,341.54375072852395" stroke="black" stroke-width="1" /><polygon fill="gray" points="304.071815223576,957.9034312220318 343.72608948377103,974.3287694266669 892.5824470686732,307.5959858925944" stroke="black" stroke-width="1" /><polygon fill="gray" points="343.72608948377103,974.3287694266669 384.66102980955986,987.2355065342216 873.3192322864611,275.2038590265406" stroke="black" stroke-width="1" /><polygon fill="gray" points="384.66102980955986,987.2355065342216 426.56509658787024,996.5254144820063 851.3061599760313,244.61389377471414" stroke="black" stroke-width="1" /><polygon fill="gray" points="426.56509658787024,996.5254144820063 469.1193745681521,1002.1277914611388 826.710762909523,216.05889824340727" stroke="black" stroke-width="1" /><polygon fill="gray" points="469.1193745681521,1002.1277914611388 511.9999999999999,1004.0 799.7202269097191,189.75619319059092" stroke="black" stroke-width="1" /><polygon fill="gray" points="511.9999999999999,1004.0 554.8806254318476,1002.1277914611388 770.5399662529093,165.90595808372467" stroke="black" stroke-width="1" /><polygon fill="gray" points="554.8806254318476,1002.1277914611388 597.4349034121295,996.5254144820065 739.392060342215,144.68970761313744" stroke="black" stroke-width="1" /><polygon fill="gray" points="597.4349034121295,996.5254144820065 639.33897019044,987.2355065342217 706.5135635492363,126.26891025563265" stroke="black" stroke-width="1" /><polygon fill="gray" points="639.33897019044,987.2355065342217 680.2739105162291,974.3287694266669 672.1547010871471,110.78375940188243" stroke="black" stroke-width="1" /><polygon fill="gray" points="680.2739105162291,974.3287694266669 719.9281847764242,957.9034312220317 636.5769646457319,98.35210640007358" stroke="black" stroke-width="1" /><polygon fill="gray" points="719.9281847764242,957.9034312220317 758.0,938.0844986619438 600.0511222817352,89.06856363598729" stroke="black" stroke-width="1" /><polygon fill="gray" points="758.0,938.0844986619438 794.1996066847146,915.022805790184 562.8551577104531,83.00378447561462" stroke="black" stroke-width="1" /><polygon fill="gray" points="794.1996066847146,915.022805790184 828.2515039657774,888.8938660145373 525.2721546818108,80.20392555037961" stroke="black" stroke-width="1" /><polygon fill="gray" points="828.2515039657774,888.8938660145373 859.8965363437812,859.8965363437815 487.5881425420937,80.69029547730457" stroke="black" stroke-width="1" /><polygon fill="gray" points="859.8965363437812,859.8965363437815 888.893866014537,828.2515039657775 450.0899193779138,84.45919268756722" stroke="black" stroke-width="1" /><polygon fill="gray" points="888.893866014537,828.2515039657775 915.0228057901838,794.1996066847148 413.0628693095964,91.48193359767527" stroke="black" stroke-width="1" /><polygon fill="gray" points="915.0228057901838,794.1996066847148 938.0844986619436,758.0000000000002 376.78879054570695,101.70507090885548" stroke="black" stroke-width="1" /><polygon fill="gray" points="938.0844986619436,758.0000000000002 957.9034312220318,719.928184776424 341.5437507285236,115.0508003732715" stroke="black" stroke-width="1" /><polygon fill="gray" points="957.9034312220318,719.928184776424 974.3287694266669,680.273910516229 307.5959858925944,131.41755293132667" stroke="black" stroke-width="1" /><polygon fill="gray" points="974.3287694266669,680.273910516229 987.2355065342216,639.3389701904401 275.20385902654067,150.68076771353896" stroke="black" stroke-width="1" /><polygon fill="gray" points="987.2355065342216,639.3389701904401 996.5254144820063,597.4349034121298 244.6138937747142,172.69384002396868" stroke="black" stroke-width="1" /><polygon fill="gray" points="996.5254144820063,597.4349034121298 1002.1277914611388,554.8806254318479 216.05889824340727,197.28923709047695" stroke="black" stroke-width="1" /><polygon fill="gray" points="1002.1277914611388,554.8806254318479 1004.0,512.0000000000001 189.75619319059092,224.27977309028086" stroke="black" stroke-width="1" /><circle cx="512" cy="512" fill="none" r="391" stroke="lightgray" stroke-width="1" /><circle cx="512" cy="512" fill="none" r="411" stroke="lightgray" stroke-width="1" /><circle cx="512" cy="512" fill="none" r="431" stroke="lightgray" stroke-width="1" /><circle cx="512" cy="512" fill="none" r="451" stroke="lightgray" stroke-width="1" /><circle cx="512" cy="512" fill="none" r="471" stroke="lightgray" stroke-width="1" /><circle cx="512" cy="512" fill="white" r="341" stroke="black" stroke-width="8" /></svg>